<svg width="614" height="388" viewBox="0 0 614 388" fill="none" xmlns="http://www.w3.org/2000/svg">
<path d="M395.966 359.271C335.362 343.747 271.757 344.304 211.433 360.887C182.219 368.963 152.864 380.895 122.733 377.833C92.6008 374.771 61.7339 349.391 66.3031 319.424C68.8203 302.905 80.9909 289.847 90.9601 276.441C100.929 263.034 109.399 245.697 103.326 230.117C95.3964 209.793 69.3271 205.705 48.5497 199.057C22.5634 190.748 -3.08641 168.193 0.419407 141.134C2.3177 126.485 12.7853 113.859 25.7577 106.763C38.73 99.6673 53.8707 97.5318 68.6375 97.806C89.9756 98.1966 112.938 103.003 131.522 92.5089C145.516 84.6152 153.807 69.6006 160.333 54.91C166.859 40.2193 172.62 24.6397 183.864 13.1564C195.109 1.67312 213.88 -4.42165 227.521 4.07863C245.706 15.4082 243.363 42.28 252.406 61.7068C265.632 90.12 302.576 99.2103 333.593 94.7275C364.609 90.2447 393.561 75.9695 424.561 71.4909C455.561 67.0123 492.522 76.1108 505.735 104.528C517.985 130.872 505.066 161.612 491.118 187.096C483.529 200.964 475.333 216.714 480.015 231.812C485.83 250.508 508.356 258.082 527.925 258.888C547.493 259.694 568.217 256.744 585.771 265.431C609.663 277.259 619.338 309.146 610.444 334.281C601.551 359.416 577.629 377.214 551.851 384.011C526.072 390.808 498.653 387.933 472.733 381.685C446.813 375.436 421.795 365.922 395.966 359.271Z" fill="#813588"/>
</svg>
